<?xml version="1.0" encoding="UTF-8"?> <svg xmlns="http://www.w3.org/2000/svg" xmlns:xlink="http://www.w3.org/1999/xlink" version="1.1" id="Capa_1" x="0px" y="0px" width="261.9px" height="303.6px" viewBox="0 0 261.9 303.6" xml:space="preserve"> <g> <path fill="#FCC113" d="M253.2,226.7c4.8,0,8.7-3.9,8.7-8.7v-36.9c0-4.8-3.9-8.7-8.7-8.7h-89.4l-27.1,54.3H253.2z"></path> <path fill="#FCC113" d="M223.3,26.4c0.5-3.6-1.3-7.3-4.7-9l-33-16.5c-4.3-2.1-9.5-0.4-11.7,3.9l-35.3,70.7H8.7 c-4.8,0-8.7,3.9-8.7,8.7v36.9c0,4.8,3.9,8.7,8.7,8.7h102.9l-21.3,42.6H8.7c-4.8,0-8.7,3.9-8.7,8.7V218c0,4.8,3.9,8.7,8.7,8.7h54.6 l-23.9,47.9c-2.1,4.3-0.4,9.5,3.9,11.7l33,16.5c3.5,1.7,7.5,0.9,10.1-1.7c0-0.1,0.1-0.2,0.1-0.3L223.3,26.4z"></path> <path fill="#FCC113" d="M253.2,129.8c4.8,0,8.7-3.9,8.7-8.7V84.2c0-4.8-3.9-8.7-8.7-8.7h-41l-27.1,54.3H253.2z"></path> </g> </svg> 